<svg width="16" height="16" viewBox="0 0 16 16" fill="none" xmlns="http://www.w3.org/2000/svg">
<path d="M7.49369 1.9551C7.657 1.45249 8.36806 1.45249 8.53136 1.9551L9.60477 5.25872C9.67781 5.48349 9.88727 5.63567 10.1236 5.63567L13.5972 5.63567C14.1257 5.63567 14.3454 6.31193 13.9179 6.62256L11.1077 8.6643C10.9165 8.80322 10.8365 9.04946 10.9095 9.27423L11.9829 12.5778C12.1462 13.0805 11.571 13.4984 11.1434 13.1878L8.33319 11.146C8.14198 11.0071 7.88307 11.0071 7.69187 11.146L4.88165 13.1878C4.4541 13.4984 3.87885 13.0805 4.04215 12.5778L5.11556 9.27423C5.1886 9.04946 5.10859 8.80322 4.91739 8.6643L2.10716 6.62256C1.67962 6.31193 1.89935 5.63567 2.42782 5.63567L5.90145 5.63567C6.13779 5.63567 6.34725 5.48349 6.42028 5.25872L7.49369 1.9551Z" fill="white"/>
</svg>
